<?xml version="1.0" encoding="UTF-8"?>
<!DOCTYPE svg PUBLIC "-//W3C//DTD SVG 1.1//EN" "http://www.w3.org/Graphics/SVG/1.1/DTD/svg11.dtd">
<!-- Creator: CorelDRAW -->
<svg xmlns="http://www.w3.org/2000/svg" xml:space="preserve" width="100px" height="100px" version="1.1" style="shape-rendering:geometricPrecision; text-rendering:geometricPrecision; image-rendering:optimizeQuality; fill-rule:evenodd; clip-rule:evenodd"
viewBox="0 0 100 100"
 xmlns:xlink="http://www.w3.org/1999/xlink"
 xmlns:xodm="http://www.corel.com/coreldraw/odm/2003">
 <defs>
  <style type="text/css">
   <![CDATA[
    .fil1 {fill:#333333;fill-rule:nonzero}
    .fil0 {fill:url(#id0)}
    .fil2 {fill:url(#id1)}
   ]]>
  </style>
  <linearGradient id="id0" gradientUnits="userSpaceOnUse" x1="14.484" y1="85.194" x2="85.516" y2="14.807">
   <stop offset="0" style="stop-opacity:1; stop-color:#595959"/>
   <stop offset="1" style="stop-opacity:1; stop-color:#8C8C8C"/>
  </linearGradient>
  <linearGradient id="id1" gradientUnits="userSpaceOnUse" xlink:href="#id0" x1="73.331" y1="17.508" x2="26.67" y2="82.492">
  </linearGradient>
 </defs>
 <g id="Слой_x0020_1">
  <metadata id="CorelCorpID_0Corel-Layer"/>
  <rect class="fil0" width="100" height="100"/>
  <g>
   <path class="fil1" d="M37.986 40.982l-25.333 23.253 0.027 -7.965 25.334 -23.253 0.077 0.004 -0.105 7.961zm0.028 -7.965l0.039 -0.036 0.038 0.04 -0.077 -0.004zm22.895 31.962l-23.001 -24 0.183 -7.958 23 24 -0.104 7.961 -0.078 -0.003zm0.078 0.003l-0.04 0.037 -0.038 -0.04 0.078 0.003zm26.334 -24.428l-26.334 24.428 0.026 -7.964 26.334 -24.428 -0.026 7.964z"/>
  </g>
  <path class="fil2" d="M10 10l80.001 0 0 80 -80.001 0 0 -80zm2.667 2.666l74.667 0 0 74.668 -74.667 0 0 -74.668z"/>
 </g>
</svg>
