<?xml version="1.0" encoding="UTF-8"?>
<!DOCTYPE svg PUBLIC "-//W3C//DTD SVG 1.1//EN" "http://www.w3.org/Graphics/SVG/1.1/DTD/svg11.dtd">
<!-- Creator: CorelDRAW -->
<svg xmlns="http://www.w3.org/2000/svg" xml:space="preserve" width="100px" height="100px" version="1.1" style="shape-rendering:geometricPrecision; text-rendering:geometricPrecision; image-rendering:optimizeQuality; fill-rule:evenodd; clip-rule:evenodd"
viewBox="0 0 100 100"
 xmlns:xlink="http://www.w3.org/1999/xlink"
 xmlns:xodm="http://www.corel.com/coreldraw/odm/2003">
 <defs>
  <style type="text/css">
   <![CDATA[
    .fil2 {fill:#383838;fill-rule:nonzero}
    .fil0 {fill:url(#id0)}
    .fil1 {fill:url(#id1)}
   ]]>
  </style>
  <linearGradient id="id0" gradientUnits="userSpaceOnUse" x1="14.484" y1="85.194" x2="85.516" y2="14.807">
   <stop offset="0" style="stop-opacity:1; stop-color:#595959"/>
   <stop offset="1" style="stop-opacity:1; stop-color:#8C8C8C"/>
  </linearGradient>
  <linearGradient id="id1" gradientUnits="userSpaceOnUse" xlink:href="#id0" x1="73.331" y1="17.508" x2="26.67" y2="82.492">
  </linearGradient>
 </defs>
 <g id="Слой_x0020_1">
  <metadata id="CorelCorpID_0Corel-Layer"/>
  <rect class="fil0" width="100" height="100"/>
  <path class="fil1" d="M10 10l80.001 0 0 80 -80.001 0 0 -80zm2.667 2.666l74.667 0 0 74.668 -74.667 0 0 -74.668z"/>
  <g>
   <path class="fil2" d="M43.476 40.976c1.381,0 2.5,1.119 2.5,2.5 0,1.38 -1.119,2.5 -2.5,2.5l0 -5zm-13.151 0l13.151 0 0 5 -13.151 0 0 -5zm0 5c-1.38,0 -2.5,-1.12 -2.5,-2.5 0,-1.381 1.12,-2.5 2.5,-2.5l0 5zm15.651 -2.5c0,1.38 -1.119,2.5 -2.5,2.5 -1.381,0 -2.5,-1.12 -2.5,-2.5l5 0zm0 -13.151l0 13.151 -5 0 0 -13.151 5 0zm-5 0c0,-1.381 1.119,-2.5 2.5,-2.5 1.381,0 2.5,1.119 2.5,2.5l-5 0zm-21.585 -7.399c-0.976,-0.976 -0.976,-2.559 0,-3.535 0.977,-0.976 2.559,-0.976 3.536,0l-3.536 3.535zm22.317 22.317l-22.317 -22.317 3.536 -3.535 22.317 22.317 -3.536 3.535zm3.536 -3.535c0.976,0.976 0.976,2.559 0,3.535 -0.976,0.977 -2.559,0.977 -3.536,0l3.536 -3.535z"/>
  </g>
  <g>
   <path class="fil2" d="M56.525 45.976c-1.381,0 -2.5,-1.12 -2.5,-2.5 0,-1.381 1.119,-2.5 2.5,-2.5l0 5zm13.151 0l-13.151 0 0 -5 13.151 0 0 5zm0 -5c1.381,0 2.5,1.119 2.5,2.5 0,1.38 -1.119,2.5 -2.5,2.5l0 -5zm-10.651 2.5c0,1.38 -1.119,2.5 -2.5,2.5 -1.381,0 -2.5,-1.12 -2.5,-2.5l5 0zm0 -13.151l0 13.151 -5 0 0 -13.151 5 0zm-5 0c0,-1.381 1.119,-2.5 2.5,-2.5 1.381,0 2.5,1.119 2.5,2.5l-5 0zm23.049 -10.934c0.977,-0.976 2.56,-0.976 3.536,0 0.976,0.976 0.976,2.559 0,3.535l-3.536 -3.535zm-22.317 22.317l22.317 -22.317 3.536 3.535 -22.317 22.317 -3.536 -3.535zm3.536 3.535c-0.977,0.977 -2.559,0.977 -3.536,0 -0.976,-0.976 -0.976,-2.559 0,-3.535l3.536 3.535z"/>
  </g>
  <g>
   <path class="fil2" d="M56.525 59.025c-1.381,0 -2.5,-1.12 -2.5,-2.5 0,-1.381 1.119,-2.501 2.5,-2.501l0 5.001zm13.151 0l-13.151 0 0 -5.001 13.151 0 0 5.001zm0 -5.001c1.381,0 2.5,1.12 2.5,2.501 0,1.38 -1.119,2.5 -2.5,2.5l0 -5.001zm-15.651 2.501c0,-1.381 1.119,-2.501 2.5,-2.501 1.381,0 2.5,1.12 2.5,2.501l-5 0zm0 13.151l0 -13.151 5 0 0 13.151 -5 0zm5 0c0,1.38 -1.119,2.5 -2.5,2.5 -1.381,0 -2.5,-1.12 -2.5,-2.5l5 0zm21.585 7.398c0.976,0.976 0.976,2.559 0,3.535 -0.976,0.977 -2.559,0.977 -3.536,0l3.536 -3.535zm-22.317 -22.317l22.317 22.317 -3.536 3.535 -22.317 -22.317 3.536 -3.535zm-3.536 3.535c-0.976,-0.976 -0.976,-2.559 0,-3.535 0.977,-0.976 2.559,-0.976 3.536,0l-3.536 3.535z"/>
  </g>
  <g>
   <path class="fil2" d="M43.476 54.024c1.381,0 2.5,1.12 2.5,2.501 0,1.38 -1.119,2.5 -2.5,2.5l0 -5.001zm-13.151 0l13.151 0 0 5.001 -13.151 0 0 -5.001zm0 5.001c-1.38,0 -2.5,-1.12 -2.5,-2.5 0,-1.381 1.12,-2.501 2.5,-2.501l0 5.001zm10.651 -2.5c0,-1.381 1.119,-2.501 2.5,-2.501 1.381,0 2.5,1.12 2.5,2.501l-5 0zm0 13.151l0 -13.151 5 0 0 13.151 -5 0zm5 0c0,1.38 -1.119,2.5 -2.5,2.5 -1.381,0 -2.5,-1.12 -2.5,-2.5l5 0zm-23.049 10.933c-0.977,0.977 -2.559,0.977 -3.536,0 -0.976,-0.976 -0.976,-2.559 0,-3.535l3.536 3.535zm22.317 -22.317l-22.317 22.317 -3.536 -3.535 22.317 -22.317 3.536 3.535zm-3.536 -3.535c0.977,-0.976 2.56,-0.976 3.536,0 0.976,0.976 0.976,2.559 0,3.535l-3.536 -3.535z"/>
  </g>
 </g>
</svg>
