<?xml version="1.0" encoding="UTF-8"?>
<!DOCTYPE svg PUBLIC "-//W3C//DTD SVG 1.1//EN" "http://www.w3.org/Graphics/SVG/1.1/DTD/svg11.dtd">
<!-- Creator: CorelDRAW -->
<svg xmlns="http://www.w3.org/2000/svg" xml:space="preserve" width="100px" height="100px" version="1.1" style="shape-rendering:geometricPrecision; text-rendering:geometricPrecision; image-rendering:optimizeQuality; fill-rule:evenodd; clip-rule:evenodd"
viewBox="0 0 100 100"
 xmlns:xlink="http://www.w3.org/1999/xlink"
 xmlns:xodm="http://www.corel.com/coreldraw/odm/2003">
 <defs>
  <style type="text/css">
   <![CDATA[
    .str0 {stroke:#333333;stroke-miterlimit:22.9256}
    .fil3 {fill:none}
    .fil2 {fill:#333333}
    .fil0 {fill:url(#id0)}
    .fil1 {fill:url(#id1)}
   ]]>
  </style>
  <linearGradient id="id0" gradientUnits="userSpaceOnUse" x1="14.484" y1="85.194" x2="85.516" y2="14.807">
   <stop offset="0" style="stop-opacity:1; stop-color:#595959"/>
   <stop offset="1" style="stop-opacity:1; stop-color:#8C8C8C"/>
  </linearGradient>
  <linearGradient id="id1" gradientUnits="userSpaceOnUse" xlink:href="#id0" x1="73.331" y1="17.508" x2="26.67" y2="82.492">
  </linearGradient>
 </defs>
 <g id="Слой_x0020_1">
  <metadata id="CorelCorpID_0Corel-Layer"/>
  <rect class="fil0" width="100" height="100"/>
  <path class="fil1" d="M10 10l80.001 0 0 80 -80.001 0 0 -80zm2.667 2.666l74.667 0 0 74.668 -74.667 0 0 -74.668z"/>
  <rect class="fil2" x="44.499" y="34.5" width="11" height="36"/>
  <line class="fil3" x1="46" y1="27" x2="55" y2= "27" />
  <rect class="fil2" x="48.512" y="63.5" width="2.963" height="14"/>
  <path class="fil2 str0" d="M50 23l5 10 -10 0 5 -10zm-18 54l11 -18 0 10.001 -11 7.999zm36 0l-11 -18 0 10.001 11 7.999z"/>
 </g>
</svg>
