<?xml version="1.0" encoding="UTF-8"?>
<!DOCTYPE svg PUBLIC "-//W3C//DTD SVG 1.1//EN" "http://www.w3.org/Graphics/SVG/1.1/DTD/svg11.dtd">
<!-- Creator: CorelDRAW -->
<svg xmlns="http://www.w3.org/2000/svg" xml:space="preserve" width="100px" height="100px" version="1.1" style="shape-rendering:geometricPrecision; text-rendering:geometricPrecision; image-rendering:optimizeQuality; fill-rule:evenodd; clip-rule:evenodd"
viewBox="0 0 100 100"
 xmlns:xlink="http://www.w3.org/1999/xlink"
 xmlns:xodm="http://www.corel.com/coreldraw/odm/2003">
 <defs>
  <style type="text/css">
   <![CDATA[
    .str0 {stroke:#383838;stroke-width:2;stroke-linecap:round;stroke-linejoin:round;stroke-miterlimit:22.9256}
    .fil2 {fill:none}
    .fil0 {fill:url(#id0)}
    .fil1 {fill:url(#id1)}
   ]]>
  </style>
  <linearGradient id="id0" gradientUnits="userSpaceOnUse" x1="14.484" y1="85.194" x2="85.516" y2="14.807">
   <stop offset="0" style="stop-opacity:1; stop-color:#595959"/>
   <stop offset="1" style="stop-opacity:1; stop-color:#8C8C8C"/>
  </linearGradient>
  <linearGradient id="id1" gradientUnits="userSpaceOnUse" xlink:href="#id0" x1="73.331" y1="17.508" x2="26.67" y2="82.492">
  </linearGradient>
 </defs>
 <g id="Слой_x0020_1">
  <metadata id="CorelCorpID_0Corel-Layer"/>
  <rect class="fil0" width="100" height="100"/>
  <path class="fil1" d="M10 10l80.001 0 0 80 -80.001 0 0 -80zm2.667 2.666l74.667 0 0 74.668 -74.667 0 0 -74.668z"/>
  <path class="fil2 str0" d="M21.2 43.845l0.273 3.623 18.083 16.029 6.043 -0.303 9.498 -10.367 -0.229 -5.479 -17.543 -15.513 -5.351 0.2 -10.774 11.81zm0.037 0.484l1.915 0.506 16.543 14.546m2.236 3.996l-0.238 -3.95 8.969 -9.666 4.253 -1.306m-6.025 -6.394l1.865 -1.966 -0.046 -1.254 -5.252 -4.322 -0.882 -0.047 -1.872 2.118m-14.695 16.671l-12.701 13.928m18.112 -9.133l-12.767 13.729 -2.512 0.428m-2.833 -5.024l0.107 2.512 2.726 2.512m24.64 -42.111l-1.674 -1.792 1.651 -1.581 1.651 1.698 -1.628 1.675zm6.52 2.247l0.202 -1.507m4.626 7.765l-1.416 -2.808 3.273 -2.985 1.548 2.719 -3.405 3.074zm9.003 -13.311l20.756 -0.043 -0.002 51.058 -40.814 0m0 0l0.006 -6.106 40.808 -0.347m-25.77 6.453l-0.053 -6.233m15.246 6.233l-0.054 -6.363m-38.901 3.297l1.354 -0.042m4.784 -5.969l-2.837 -1.482 -2.37 2.159 1.482 1.99 2.328 0.169 1.397 -2.836zm3.725 -1.465l0.552 1.472 1.141 -0.036 0.921 -0.92 -0.516 -1.363 -1.325 0.037 -0.773 0.81zm5.854 4.377l0.113 -4.906m33.703 -1.669l-29.228 0.001m26.167 6.312l0 -6.313m-15.54 6.445l0 -6.445m-15.539 -0.38l0.437 2.049 3.035 0.491 1.44 -2.159 -0.424 -2.033 -3.006 -0.889 -1.482 2.541zm7.58 0.38l0.592 2.626 2.796 3.858 1.396 4.144m-9.634 -18.51l4.332 2.771 1.12 5.111m-1.12 -5.111l1.558 -0.779 3.896 0 5.357 5.89m-5.357 -5.89l0.925 -0.488 20.699 0.001m-10.349 0l0.001 6.377m-7.186 -6.378l-0.973 -2.288 0.291 -2.533 0.926 -1.606 17.291 0m-3.024 0l0 6.428m-14.267 -6.428l-2.094 -0.73 -0.925 -3.799 1.071 -1.899 19.239 0.001m-10.62 0l0 6.427m10.62 -12.855l-24.011 -0.098 -0.098 -6.135 24.109 0.001m-10.376 0l-0.025 6.19m7.28 0.029l0 6.441m-14.364 -6.499l-0.001 6.499m4.675 -6.48l-3.214 3.558 -2.727 -0.926m-11.738 5.555l3.216 -3.266 2.727 -0.877 3.945 -4.076 1.314 -1.377m-4.918 14.413l-2.045 -1.266 1.51 -1.85 1.996 1.315 -1.461 1.801zm-2.386 2.533l1.753 0.779m21.766 -22.496l-0.014 -6.419m-16.544 6.418l-2.314 -3.257 1.189 -3.125"/>
 </g>
</svg>
